<svg xmlns="http://www.w3.org/2000/svg" viewBox="0 0 37.5 36"><path d="M8.4 10.3h10.4c.6 0 1.2-.5 1.2-1.2 0-.6-.5-1.2-1.2-1.2H8.4c-.7.1-1.2.6-1.2 1.3 0 .6.5 1.1 1.2 1.1zm0 4.8h20.8c.6 0 1.2-.5 1.2-1.2 0-.6-.5-1.2-1.2-1.2H8.4c-.6 0-1.2.5-1.2 1.2s.5 1.2 1.2 1.2zm22 3.7c0-.6-.5-1.2-1.2-1.2H8.4c-.6 0-1.2.5-1.2 1.2 0 .6.5 1.2 1.2 1.2h20.8c.6-.1 1.2-.6 1.2-1.2z"/><path d="M32.4 0L5.1.1C2.3.1 0 2.4 0 5.2v16.9c0 2.8 2.3 5.1 5.1 5.1h4.5v7.6c0 .5.3.9.8 1.1.1.1.3.1.4.1.3 0 .6-.1.9-.4l7.7-8.4 13.1-.1c2.8 0 5.1-2.3 5.1-5V5c-.1-2.7-2.4-5-5.2-5zM10.8 24.9H5.1c-1.5 0-2.8-1.2-2.8-2.8V5.2c0-1.5 1.2-2.8 2.8-2.8l27.3-.1c1.5 0 2.8 1.2 2.8 2.8V22c0 1.5-1.2 2.8-2.8 2.8l-13.7.1c-.3 0-.6.1-.9.4l-6 6.6V26c.1-.6-.4-1.1-1-1.1z"/></svg>