<svg xmlns="http://www.w3.org/2000/svg" width="74" height="74"><path fill="#2cd3b8" d="M36.86 0c20.356 0 36.859 16.565 36.859 37 0 20.434-16.503 37-36.86 37S0 57.434 0 37C0 16.565 16.503 0 36.86 0z"/><path fill="#fff" d="M42.82 51.768c0 .68-.547 1.232-1.221 1.232H32.4a1.226 1.226 0 0 1-1.221-1.232c0-.68.546-1.232 1.22-1.232h3.379v-2.96h2.442v2.96h3.378c.674 0 1.221.552 1.221 1.232zM53 43.491v1.47a.968.968 0 0 1-.963.972H21.963a.968.968 0 0 1-.963-.971V43.49zm0-18.52v16.877h-2.252a13.896 13.896 0 0 0-5.327-10.687l.778-1.072a.826.826 0 0 0-.176-1.148.81.81 0 0 0-1.138.177l-.807 1.113A13.579 13.579 0 0 0 37 28.248c-7.493 0-13.604 6.076-13.748 13.6H21V24.971c0-.536.432-.971.963-.971h30.074c.53 0 .963.435.963.971zM44.025 41.3h-4.123a3.132 3.132 0 0 0-.898-1.295l2.425-3.342a7.033 7.033 0 0 1 2.462 4.304c.02.123.067.236.134.333zm-3.972-5.523L37.497 39.3a3.1 3.1 0 0 0-3.4 2h-4.122a.823.823 0 0 0 .133-.334c.22-1.339.8-2.533 1.632-3.491a.821.821 0 0 0 .143-.153l.018-.027A6.938 6.938 0 0 1 37 35.074a6.95 6.95 0 0 1 3.053.702zm5.311 5.523a.824.824 0 0 0 .134-.602 8.721 8.721 0 0 0-2.9-5.176 9.091 9.091 0 0 0-.214-.176l2.075-2.86a12.25 12.25 0 0 1 4.637 8.814zm-16.728 0h-3.732a12.224 12.224 0 0 1 2.309-6.39l.009.008 2.83 2.076a8.709 8.709 0 0 0-1.55 3.704.825.825 0 0 0 .134.602zm7.55-11.38v3.553a8.575 8.575 0 0 0-5.047 2.287l-2.876-2.109a12.05 12.05 0 0 1 7.923-3.731zm6.926 1.643l-2.089 2.878a8.546 8.546 0 0 0-3.209-.968V29.92c1.922.129 3.723.712 5.298 1.643z"/></svg>