<svg version="1.1" id="Layer_1" xmlns="http://www.w3.org/2000/svg" x="0" y="0" viewBox="0 0 909.2 220.3" xml:space="preserve"><style>.st0{fill:#adb0c2}</style><path class="st0" d="M412 90.4c32.5 0 56 24.1 56 56.6 0 2.2-.3 6.2-.6 8.4-.3 3.1-2.8 5.3-5.6 5.3h-89c1.2 20.7 19.5 40.2 41.4 40.2 13 0 23.5-4.9 30.6-9.3 4.3-2.5 6.2-4 8.7-.6 1.9 2.5 3.4 4.6 5.3 7.1 2.2 2.8 3.4 4.6-1.2 8-7.4 5.9-24.1 14.2-45.4 14.2-37.4 0-60.6-29.4-60.6-64.9-.2-35 23-65 60.4-65zm34.6 52.9c-.9-17.9-15.8-34-34.6-34-20.7 0-36.8 14.8-39 34h73.6zM502 6.6c0-3.1 2.8-5.9 5.9-5.9h9.6c3.1 0 5.9 2.8 5.9 5.9v91.8s12.7-8 33.1-8c37.1 0 59.4 28.4 59.4 64.6 0 35.6-24.7 65.2-56.3 65.2-23.2 0-38-16.4-38-16.4l-1.9 8.3c-.6 2.8-2.5 4.9-5.3 4.9h-6.5c-3.1 0-5.9-2.8-5.9-5.9V6.6zm55.3 194.2c22.6 0 36.8-21.3 36.8-45.4 0-24.7-13.6-44.2-40.5-44.2-17 0-30 7.4-30 7.4v61.8s11.5 20.4 33.7 20.4zm89.1-179c0-8.3 6.5-14.8 14.5-14.8 8.3 0 14.8 6.5 14.8 14.8 0 8-6.5 14.5-14.8 14.5-8 0-14.5-6.5-14.5-14.5zm4.3 77.6c0-3.1 2.8-5.9 5.9-5.9h9.6c3.1 0 5.9 2.8 5.9 5.9v111.9c0 3.1-2.8 5.9-5.9 5.9h-9.6c-3.1 0-5.9-2.8-5.9-5.9V99.4zm65.2 0c0-3.1 2.8-5.9 5.9-5.9h5.9c2.8 0 4.3 1.2 4.9 3.7l2.8 9.6s14.5-16.4 40.2-16.4c18.2 0 31.5 7.1 39.6 20.1 1.5-1.2 21.3-20.1 46.1-20.1 35.9 0 47.9 23.5 47.9 55.6v65.2c0 3.1-2.8 5.9-5.9 5.9h-9.9c-3.1 0-5.9-2.8-5.9-5.9V146c0-23.2-9.9-34.9-27.8-34.9-20.1 0-33.4 13.3-37.7 17.3.9 5.3 1.5 11.1 1.5 17.6v65.2c0 3.1-2.8 5.9-5.9 5.9h-9.9c-3.1 0-5.9-2.8-5.9-5.9V146c0-23.5-10.5-34.9-29.4-34.9-21.9 0-35.2 17.6-35.2 17.6v82.5c0 3.1-2.8 5.9-5.9 5.9h-9.6c-3.1 0-5.9-2.8-5.9-5.9V99.4h.1z"/><linearGradient id="SVGID_1_" gradientUnits="userSpaceOnUse" x1="-2" y1="191.818" x2="178.345" y2="191.818" gradientTransform="matrix(1 0 0 -1 2 280)"><stop offset="0" stop-color="#adb0c2"/><stop offset="1" stop-color="#5e6287"/></linearGradient><path d="M141.3 41.6c-2.1 3.9-4 8.4-6.1 13.3-1.8 4.3-3.4 8.7-4.9 12.9l-4.1 12.8c-2.5 8.4-5 15.8-7.6 22.5-2.8 7.4-5.9 14.1-9.1 20-2.5 4.5-6.3 10.7-10.9 14.9-4.1 3.6-7.7 5.1-11.9 5.1-4.1-.1-9-2.3-13.8-6.3-3.8-3.1-7.8-7.4-12.5-13.5-3.6-4.8-7.3-10.3-11-16.4-6.1-10.5-12.2-22.2-18.2-35-11.2-24-18.5-44.7-25-62.2-.3-1-1-1.7-1.9-2.1-.4-.1-.8-.2-1.2-.2-.9 0-1.7.2-2.3.8-.5.6-1 1.4-.8 2.4.2.7.3 1.3.5 2C5.1 30.8 11.6 54.3 20.9 80c3.9 10.6 9.3 24.7 16.4 38.9 3.6 7.2 7.2 13.6 11 19.5 4.7 7.4 9.4 13.2 14.6 18.2 3.2 3.1 6.4 5.5 9.7 7.5 4.1 2.4 8 3.9 11.8 4.5 4.3.7 8.9.4 13.1-1 4-1.3 7.9-3.4 11.9-6.5 7.9-6.3 13.3-14.2 17.2-20.4 4.1-6.6 7.8-13.8 11.9-23.5 3.1-7.4 6.2-15.5 9.3-24.8l4-11.4c1.4-3.8 2.9-7.3 4.3-10.8 7.1-18.5 16.6-19.3 24.2-6.7-13.9-25.5-39-21.9-39-21.9z" fill="url(#SVGID_1_)"/><path class="st0" d="M329.5 0c-3.6 0-6.5 2.5-7.6 5.9l-.4 1.8-3.9 19.3c-1.2 6.4-2.7 13.2-4.2 19.9l-.7 3.4c-3.5 15.9-7.2 32-11.2 47.9-4.2 17-8.9 33.1-13.7 47.7-2.8 8.5-5.7 16-8.6 22.3-1.6 3.5-3.2 6.8-5 9.7-1.8 2.9-7.8 15.6-16.9 1.3-1.6-2.5-3.4-5.5-5.4-9.3-7.2-14.2-13.6-31.5-19.1-46.5l-4.1-11.2c-4.2-11.6-8.5-23.5-13.3-35.4l-1.5-3.6c-3.1-7.5-6.9-16.3-11.6-25.3-2.6-4.9-5.1-8.9-7.6-12.6-2.7-3.8-6-8.1-11.1-12-2.8-2-5.5-3.5-8.3-4.3-3.2-1-6.8-1.1-10-.4-3 .7-6 2-8.9 4.1-2.7 1.9-4.7 4-6.6 6.1-3.9 4.6-6.6 9.1-8.7 13 0 0 24.4-3.4 39 21.5.2.3.3.5.5.8.4.8.9 1.6 1.3 2.4 2.9 6 6.3 12.9 10 22.1 4.4 11 8.6 22.3 13 34.3l5.4 14.7c2.8 7.5 6.2 16.4 9.8 25.2 2.8 6.9 6.7 16.1 11.6 25.2 1.9 3.4 4.4 8 7.6 12.5 2.6 3.7 6 8.1 10.8 12 2.6 2 5.2 3.5 7.9 4.5 3.1 1.2 6.6 1.6 9.7 1.1 3.9-.5 7.1-2.1 9.1-3.4 2.5-1.6 4.9-3.6 6.8-5.7 4.2-4.5 6.9-9.1 9.2-13.1 2.2-4 4.3-8.3 6.3-13.1 3.2-7.8 6.2-16 9.2-26 5.4-17.7 9.3-35 12.7-51.2 3.1-14.5 6-30.3 9.3-49.7l.7-4c1.1-6.8 2.2-13.4 3.2-20.3l2.9-20.7.4-2.8v-.2c-.1-4.2-3.6-7.9-8-7.9z"/></svg>