<svg xmlns="http://www.w3.org/2000/svg" viewBox="0 0 100 100"><path d="M49.8-155C-63.3-155-155-63.3-155 49.8c0 113.1 91.7 204.8 204.8 204.8 113.1 0 204.8-91.7 204.8-204.8C254.6-63.3 162.9-155 49.8-155zm108.1 298.8l-16.4 16.4c-2.9 2.9-11.5 4.8-11.8 4.8-51.9.4-101.8-19.9-138.5-56.6-36.8-36.8-57.2-87-56.6-139 0 0 1.9-8.4 4.8-11.3l16.4-16.4c6-6 17.5-8.7 25.6-6.1l3.5 1.2C-7-60.5 1.4-51.6 3.6-43.4l8.3 30.3c2.2 8.2-.8 19.9-6.8 25.9l-11 11c10.8 39.8 42 71 81.8 81.8l10.9-10.9c6-6 17.7-9 25.9-6.8l30.3 8.3c8.2 2.3 17.1 10.7 19.8 18.7l1.2 3.5c2.7 7.9-.1 19.5-6.1 25.4zm0 0"/></svg>